# xmcd CD database file
#
# Track frame offsets:
#	150
#	16388
#	29498
#	46195
#	63522
#	86381
#	104675
#	122429
#	147886
#	167080
#	180629
#	199631
#	212528
#
# Disc length: 3218 seconds
#
# Revision: 0
# Processed by: cddbd v1.5.2PL0 Copyright (c) Steve Scherf et al.
# Submitted via: CDex 1.70beta1
#
DISCID=ac0c900d
DTITLE=Vdelli - Live In Europe
DYEAR=2006
DGENRE=Blues
TTITLE0=Sometimes I Wonder
TTITLE1=Everyday I Have The Blues
TTITLE2=Hard Way
TTITLE3=Born Under A Bad Sign
TTITLE4=Help Me
TTITLE5=Noel Burnt The Kitchen Down
TTITLE6=Can't Keep Me
TTITLE7=Stratus
TTITLE8=Newtown
TTITLE9=Green Light Girl
TTITLE10=Dust My Broom
TTITLE11=Stormy Monday
TTITLE12=Thank You For Letting Me Be Myself
EXTD=YEAR: 2006
EXTT0=
EXTT1=
EXTT2=
EXTT3=
EXTT4=
EXTT5=
EXTT6=
EXTT7=
EXTT8=
EXTT9=
EXTT10=
EXTT11=
EXTT12=
PLAYORDER=
